<?xml version="1.0" encoding="utf-8"?>
<svg version="1.1" id="Layer_1" xmlns="http://www.w3.org/2000/svg" xmlns:xlink="http://www.w3.org/1999/xlink" x="0px" y="0px"
	 width="32px" height="32px" viewBox="0 0 32 32" enable-background="new 0 0 32 32" xml:space="preserve">
<title>product-iconimpact-access</title>
<path fill="#0D122B" d="M31.5,3.6C31.2,3.2,30.8,3,30.3,3H13.7c-0.9,0-1.6,0.6-1.9,1.4L10.9,7H6.7C5.9,7,5.1,7.6,4.8,8.4L0.3,22
	c-0.1,0.5-0.1,1,0.2,1.4C0.8,23.8,1.2,24,1.7,24h8.6c0.9,0,1.6-0.6,1.9-1.4l0.9-2.6H19l3.5,3.5c0.4,0.4,0.9,0.6,1.4,0.6
	c0.2,0,0.3,0,0.5,0c0.7-0.2,1.2-0.7,1.5-1.3L31.7,5C31.9,4.5,31.8,4,31.5,3.6z M2.4,22L6.7,9h3.5L7,18.7c-0.1,0.3-0.1,0.6,0.1,0.9
	l0.1,0.1L9.6,22H2.4z M23.9,22.1l-3.8-3.8c-0.2-0.2-0.4-0.3-0.7-0.3h-10l4.3-13h15.9L23.9,22.1z"/>
<path fill="#0D122B" d="M18.7,14.6c0.3,0.3,0.9,0.3,1.2,0l3.1-3c0.7-0.7,0.7-1.8,0-2.4C22.9,9,22.9,9,22.8,8.9
	c-0.7-0.5-1.7-0.4-2.3,0.2l-1.2,1.1l-1.1-1.2c-0.6-0.6-1.6-0.7-2.3-0.2c-0.8,0.5-1,1.6-0.4,2.4c0.1,0.1,0.1,0.2,0.2,0.2L18.7,14.6z"
	/>
</svg>
